<svg xmlns="http://www.w3.org/2000/svg" version="1.0" viewBox="0 0 1024 1024" fill="currentColor">
  <path d="m492 110-12 2c-55 12-97 54-109 109-2 9-2 13-2 29s0 20 2 29c4 19 12 38 25 61 3 6 6 11 5 12l-15 2a232 232 0 0 0-148 68 284 284 0 0 0-73 135c-18 79 20 141 94 156 9 2 15 2 39 3h28l2 4c9 21 14 28 25 39a123 123 0 0 0 87 35c21-1 31-2 57-11l20-6 5 5c7 13 78 126 83 131 7 8 21 15 32 15s25-7 31-16c9-12 10-26 4-44l-2-7h18c18-1 29-3 44-8a109 109 0 0 0 73-101v-8l8-4c31-14 50-39 59-79 7-32 4-79-7-113-13-38-34-64-66-79l-7-4-4-8a186 186 0 0 0-158-105c-6 0-7-2-4-8 13-21 24-48 28-67 2-12 2-42 0-54-5-20-14-41-25-56a140 140 0 0 0-114-58l-23 1zm40 31c23 5 42 14 59 31a111 111 0 0 1 32 104c-4 17-15 39-33 69a2157 2157 0 0 1-79 111c-3-1-66-93-82-121-23-38-30-57-30-84 0-24 6-44 20-64a113 113 0 0 1 113-46zm98 241c39 4 66 15 93 37 19 15 31 32 39 54l7 14 12 6c39 15 60 52 65 114 1 16 0 36-3 50-6 28-23 49-47 58-17 6-17 6-114 7l-87 1-12 2c-24 5-34 8-68 20-47 18-56 20-79 19s-39-6-54-18a70 70 0 0 1-20-94c6-9 20-24 30-31 22-15 58-26 102-34 26-4 43-6 73-7 33-1 42-3 59-9 16-6 35-22 44-36 11-16 18-38 19-56 1-11-3-19-11-21-11-3-19 6-19 21l-2 14c-5 21-18 39-36 48-12 6-24 8-50 10a543 543 0 0 0-177 34 94 94 0 0 1-20-62c1-11 1-13 7-28 2-6 1-11-3-15-5-6-15-6-20 0-7 6-12 26-13 45l-1 13c-1 2-6-1-12-7-8-6-12-8-17-7s-10 6-11 11c-1 6 1 10 8 17 8 8 18 13 30 16l10 3 5 8 7 14c5 8 5 8-5 18a113 113 0 0 0-36 71v5h-17c-47 0-71-7-92-28a80 80 0 0 1-24-47c-1-12-1-21 1-34 8-55 41-113 84-149 38-30 78-45 129-47 16 0 16 0 19 2l30 44 36 51c8 11 12 14 18 16s13 0 17-3c3-3 23-29 59-82 21-30 20-29 27-29l20 2zm145 370v8c-3 28-17 48-40 60-17 9-30 12-55 11-38-1-36-1-40 2-3 3-5 8-5 12l6 22c6 20 7 22 5 25-3 6-10 7-16 4-4-2-3-1-43-64-37-59-39-63-39-66 1-4 33-12 56-14h171z"/>
  <path d="M496 190a63 63 0 0 0-47 46c-8 27 2 58 25 73 30 20 72 13 92-16 14-20 16-47 5-70-6-12-19-24-32-29-7-3-21-6-28-6l-15 2zm30 32c7 3 13 9 17 15 5 9 6 24 1 33-3 6-11 14-17 17-5 2-7 3-15 3s-10-1-15-3c-8-4-13-9-17-17-3-6-3-7-3-15s0-10 2-15c5-10 13-17 23-20 7-2 18-1 24 2zm220 350c-4 1-9 6-11 14-6 16-16 26-32 34s-33 11-67 13c-49 3-108 12-155 23-29 7-33 10-33 20 0 7 2 11 8 13 5 2 5 2 25-3 52-13 105-21 157-23 37-3 58-7 78-17a84 84 0 0 0 46-52c3-7 3-9 2-12-2-5-6-9-10-10h-8z"/>
</svg>
